# AST/ASF file generated using VICON BodyLanguage
# -----------------------------------------------
:version 1.10
:name VICON
:units
  mass 1.0
  length 0.45
  angle deg
:documentation
   .ast/.asf automatically generated from VICON data using
   VICON BodyBuilder and BodyLanguage model FoxedUp or BRILLIANT.MOD
:root
   order TX TY TZ RX RY RZ
   axis XYZ
   position 0 0 0  
   orientation 0 0 0 
:bonedata
  begin
     id 1 
     name lhipjoint
     direction 0.662698 -0.695252 0.27831 
     length 2.53073 
     axis 0 0 0  XYZ
  end
  begin
     id 2 
     name lfemur
     direction 0.34202 -0.939693 0  
     length 7.16147  
     axis 0 0 20  XYZ
    dof rx ry rz
    limits (-160.0 20.0)
           (-70.0 70.0)
           (-60.0 70.0)
  end
  begin
     id 3 
     name ltibia
     direction 0.34202 -0.939693 0   
     length 7.63967   
     axis 0 0 20   XYZ
    dof rx
    limits (-10.0 170.0)
  end
  begin
     id 4 
     name lfoot
     direction 0.0938457 -0.257721 0.961651   
     length 1.89793   
     axis -90 7.62852e-016 20   XYZ
    dof rx rz
    limits (-45.0 90.0)
           (-70.0 20.0)
  end
  begin
     id 5 
     name ltoes
     direction -0.00116841 -0.0030592 0.999995   
     length 0.955649   
     axis -90 7.62852e-016 20   XYZ
    dof rx
    limits (-90.0 20.0)
  end
  begin
     id 6 
     name rhipjoint
     direction -0.649445 -0.705948 0.282592   
     length 2.49238  
     axis 0 0 0  XYZ 
  end
  begin
     id 7 
     name rfemur
     direction -0.34202 -0.939693 0   
     length 6.90728   
     axis 0 0 -20   XYZ
    dof rx ry rz
    limits (-160.0 20.0)
           (-70.0 70.0)
           (-70.0 60.0)
  end
  begin
     id 8 
     name rtibia
     direction -0.34202 -0.939693 0   
     length 7.72868   
     axis 0 0 -20   XYZ
    dof rx
    limits (-10.0 170.0)
 end
 begin
     id 9 
     name rfoot
     direction -0.0920068 -0.252865 0.963117   
     length 1.97476  
     axis -90 -7.62852e-016 -20   XYZ
    dof rx rz
    limits (-45.0 90.0)
           (-20.0 70.0)
  end
  begin
     id 10 
     name rtoes
     direction 0.000391322 0.00230649 0.999997   
     length 0.992641   
     axis -90 -7.62852e-016 -20   XYZ
    dof rx
    limits (-90.0 20.0)
  end
  begin
     id 11 
     name lowerback
     direction -0.00875327 0.998321 -0.0572635   
     length 2.20024   
     axis 0 0 0   XYZ
    dof rx ry rz
    limits (-20.0 45.0)
           (-30.0 30.0)
           (-30.0 30.0)
  end
  begin
     id 12 
     name upperback
     direction 0.00753931 0.999972 -0.000360425   
     length 2.20538   
     axis 0 0 0   XYZ
    dof rx ry rz
    limits (-20.0 45.0)
           (-30.0 30.0)
           (-30.0 30.0)
  end
  begin
     id 13 
     name thorax
     direction 0.0117767 0.999601 0.0256663   
     length 2.21508   
     axis 0 0 0   XYZ
    dof rx ry rz
    limits (-20.0 45.0)
           (-30.0 30.0)
           (-30.0 30.0)
  end
  begin
     id 14 
     name lowerneck
     direction 0.060228 0.994909 0.0807986   
     length 1.7607   
     axis 0 0 0   XYZ
    dof rx ry rz
    limits (-20.0 45.0)
           (-30.0 30.0)
           (-30.0 30.0)
  end
  begin
     id 15 
     name upperneck
     direction -0.0563647 0.959594 -0.275685   
     length 1.75612   
     axis 0 0 0   XYZ
    dof rx ry rz
    limits (-20.0 45.0)
           (-30.0 30.0)
           (-30.0 30.0)
  end
  begin
     id 16
     name head
     direction -0.0161544 0.99458 -0.102714  
     length 1.79288  
     axis 0 0 0   XYZ
    dof rx ry rz
    limits (-20.0 45.0)
           (-30.0 30.0)
           (-30.0 30.0)
  end
  begin
     id 17 
     name lclavicle
     direction 0.93913 0.332189 -0.087669  
     length 3.52087  
     axis 0 0 0   XYZ
    dof ry rz
    limits (-20.0 10.0)
           (0.0 20.0)
  end
  begin
     id 18 
     name lhumerus
     direction 1 -4.48974e-011 -2.70836e-027   
     length 5.35289   
     axis -180 -30 -90   XYZ
    dof rx ry rz
    limits (-60.0 90.0)
           (-90.0 90.0)
           (-90.0 90.0)
  end
  begin
     id 19
     name lradius
     direction 1 -4.48961e-011 -9.76021e-027   
     length 3.27727   
     axis -180 -30 -90   XYZ
    dof rx
    limits (-10.0 170.0)
  end
  begin
     id 20
     name lwrist
     direction 1 -4.49103e-011 -2.23668e-026   
     length 1.63864   
     axis 1.44924e-014 90 90   XYZ
    dof ry
    limits (-180.0 0.0)
 end
  begin
     id 21 
     name lhand
     direction 1 3.0697e-005 0.000161777   
     length 0.54443   
     axis 2.85318e-014 90 90   XYZ
    dof rx rz
    limits (-90.0 90.0)
           (-45.0 45.0)
  end
  begin
     id 22 
     name lfingers
     direction 1 -4.49027e-011 -8.9447e-026   
     length 0.438912   
     axis 5.70628e-014 90 90   XYZ
    dof rx
    limits (0.0 90.0)
  end
  begin
     id 23
     name lthumb
     direction 0.707058 2.6516e-005 0.707156   
     length 0.630274   
     axis -90 45 -3.53137e-014   XYZ
    dof rx rz
    limits (-45.0 45.0)
           (-45.0 45.0)
  end
  begin
     id 24 
     name rclavicle
     direction -0.95274 0.284984 -0.105215   
     length 3.43401  
     axis 0 0 0   XYZ 
    dof ry rz
    limits (-10.0 20.0)
           (-20.0 0.0)
  end
  begin
     id 25 
     name rhumerus
     direction -0.999999 -0.000575019 -0.00106829  
     length 5.52077   
     axis -180 30 90   XYZ
    dof rx ry rz
    limits (-90.0 60.0)
           (-90.0 90.0)
           (-90.0 90.0)
  end
  begin
     id 26 
     name rradius
     direction -1 -4.4879e-011 -6.35415e-027   
     length 3.32364   
     axis -180 30 90   XYZ
    dof rx
    limits (-10.0 170.0)
  end
  begin
     id 27 
     name rwrist
     direction -1 -4.49048e-011 -9.98542e-027   
     length 1.66182   
     axis 6.32482e-015 -90 -90   XYZ
    dof ry
    limits (-180.0 0.0)
  end
  begin
     id 28
     name rhand
     direction -1 -4.48978e-011 -1.99771e-026   
     length 0.732235   
     axis 1.27479e-014 -90 -90   XYZ
    dof rx rz
    limits (-90.0 90.0)
           (-45.0 45.0)
  end
  begin
     id 29
     name rfingers
     direction -1 -4.49144e-011 -3.99245e-026   
     length 0.590347   
     axis 2.5496e-014 -90 -90   XYZ
    dof rx
    limits (0.0 90.0)
  end
  begin
     id 30
     name rthumb
     direction -0.707107 -6.35121e-011 0.707107   
     length 0.847624   
     axis -90 -45 -2.82974e-014   XYZ
    dof rx rz
    limits (-45.0 45.0)
           (-45.0 45.0)
  end
:hierarchy
  begin
    root lhipjoint rhipjoint lowerback
    lhipjoint lfemur
    lfemur ltibia
    ltibia lfoot
    lfoot ltoes
    rhipjoint rfemur
    rfemur rtibia
    rtibia rfoot
    rfoot rtoes
    lowerback upperback
    upperback thorax
    thorax lowerneck lclavicle rclavicle
    lowerneck upperneck
    upperneck head
    lclavicle lhumerus
    lhumerus lradius
    lradius lwrist
    lwrist lhand lthumb
    lhand lfingers
    rclavicle rhumerus
    rhumerus rradius
    rradius rwrist
    rwrist rhand rthumb
    rhand rfingers
  end

#!OML:ASF G:\Work\Work\Patient Classification 1\Elijah\terrain1\Elijah.ASF
:FULLY-SPECIFIED
:DEGREES
571
root 25.3827 20.5047 18.5683 197.288 2.76035 176.74
lowerback -4.83676 -0.68278 6.93009
upperback 2.35552 -1.15394 -3.71513
thorax 4.98178 -0.243215 -7.94823
lowerneck 9.3675 20.858 23.9002
upperneck -9.29696 33.4294 -38.5172
head 7.15873 18.0944 -12.0233
rclavicle -1.85864e-014 -3.77691e-014
rhumerus -31.2694 -0.116426 -90.2465
rradius 27.5355
rwrist 3.53768
rhand -13.94 23.8558
rfingers 7.12502
rthumb 12.187 -5.76916
lclavicle -1.85864e-014 -3.77691e-014
lhumerus -36.3814 -8.40229 79.9731
lradius 55.2487
lwrist -4.87904
lhand -14.4995 28.9816
lfingers 7.12502
lthumb 11.6474 58.6378
rfemur -62.5287 -0.0307862 18.4554
rtibia 53.2805
rfoot -9.5537 -5.28396
rtoes -13.3692
lfemur -13.2662 -7.21791 -24.1254
ltibia 31.7581
lfoot 9.34463 -8.34858
ltoes -5.85721
572
root 25.4176 20.5206 18.4437 197.314 2.66126 176.728
lowerback -4.84724 -0.700513 6.79773
upperback 2.42827 -1.19449 -3.40398
thorax 5.06389 -0.272055 -7.5401
lowerneck 9.10631 21.1542 23.4066
upperneck -9.42933 33.7396 -38.535
head 7.16312 18.2473 -11.8238
rclavicle 5.56597e-015 1.23246e-014
rhumerus -30.9619 0.577071 -89.9805
rradius 27.8417
rwrist 2.85207
rhand -14.0574 24.3738
rfingers 7.12502
rthumb 12.0738 -5.25786
lclavicle 5.56597e-015 1.23246e-014
lhumerus -36.2902 -8.06104 80.4788
lradius 53.9594
lwrist -4.89532
lhand -13.8715 29.9914
lfingers 7.12502
lthumb 12.253 59.6124
rfemur -62.1399 0.12455 18.4467
rtibia 53.5067
rfoot -10.1623 -5.4034
rtoes -13.265
lfemur -13.4602 -7.1781 -24.0031
ltibia 32.3524
lfoot 10.786 -8.16512
ltoes -4.55988
573
root 25.4485 20.5495 18.3196 197.46 2.4686 176.955
lowerback -4.95878 -0.696644 7.01467
upperback 2.47874 -1.24222 -3.05879
thorax 5.17625 -0.293698 -7.30218
lowerneck 8.95416 21.4454 22.9243
upperneck -9.67285 34.0426 -38.6067
head 7.1287 18.4168 -11.6637
rclavicle 2.6339e-015 1.49089e-015
rhumerus -30.5048 1.04809 -89.673
rradius 28.0761
rwrist 2.53926
rhand -14.0694 23.9532
rfingers 7.12502
rthumb 12.0621 -5.67916
lclavicle 2.6339e-015 1.49089e-015
lhumerus -36.2087 -7.80016 80.969
lradius 52.7811
lwrist -4.52307
lhand -13.382 30.3717
lfingers 7.12502
lthumb 12.7249 59.9639
rfemur -61.7626 0.325205 18.6713
rtibia 53.6752
rfoot -10.7071 -5.68856
rtoes -13.9697
lfemur -13.8605 -6.82697 -23.617
ltibia 33.1127
lfoot 12.0837 -8.4142
ltoes -4.81264
574
root 25.4858 20.5681 18.2036 197.595 2.31825 177.285
lowerback -4.96224 -0.677549 7.21626
upperback 2.4955 -1.26244 -2.66805
thorax 5.19727 -0.307738 -7.0005
lowerneck 9.40794 21.4273 22.8499
upperneck -10.2925 34.1019 -39.2215
head 7.03854 18.5881 -11.8965
rclavicle 7.30534e-015 0
rhumerus -30.1345 1.60121 -89.3232
rradius 28.4725
rwrist 1.88436
rhand -14.2556 22.539
rfingers 7.12502
rthumb 11.8826 -7.10381
lclavicle 7.30534e-015 0
lhumerus -36.1503 -7.68404 81.5566
lradius 51.4337
lwrist -3.63105
lhand -13.7805 29.3083
lfingers 7.12502
lthumb 12.3408 58.9241
rfemur -61.4413 0.611183 19.0504
rtibia 53.8527
rfoot -11.1249 -5.9651
rtoes -14.329
lfemur -14.3381 -6.50151 -23.1174
ltibia 34.0685
lfoot 12.9755 -8.6424
ltoes -5.995
575
root 25.5236 20.5843 18.0907 197.559 2.20734 177.44
lowerback -4.74493 -0.672849 7.24149
upperback 2.43753 -1.2614 -2.38375
thorax 5.01672 -0.324739 -6.70261
lowerneck 10.2422 21.241 23.1413
upperneck -10.8461 34.074 -39.9059
head 6.97388 18.7457 -12.2821
rclavicle 4.58447e-015 -2.79789e-014
rhumerus -30.1322 2.14301 -89.1091
rradius 28.838
rwrist 1.01017
rhand -15.2627 28.6825
rfingers 7.12502
rthumb 10.9114 -1.01402
lclavicle 4.58447e-015 -2.79789e-014
lhumerus -36.2844 -7.61849 82.041
lradius 50.107
lwrist -2.78343
lhand -13.8439 28.6281
lfingers 7.12502
lthumb 12.2796 58.2475
rfemur -60.9579 0.843353 19.2545
rtibia 53.9945
rfoot -11.5782 -6.09949
rtoes -13.6422
lfemur -14.7451 -5.92643 -22.8189
ltibia 35.1819
lfoot 13.691 -9.28505
ltoes -6.66203
576
root 25.5526 20.5983 17.9762 197.502 1.98433 177.558
lowerback -4.51663 -0.695461 7.37252
upperback 2.3067 -1.29733 -2.15583
thorax 4.74472 -0.361526 -6.52803
lowerneck 11.0321 21.0087 23.5962
upperneck -11.0845 34.0002 -40.3216
head 6.95741 18.831 -12.6136
rclavicle 9.16894e-015 2.75317e-014
rhumerus -30.2223 2.54172 -88.9526
rradius 29.0374
rwrist 0.117372
rhand -16.3017 31.1062
rfingers 7.12502
rthumb 9.90914 1.35939
lclavicle 9.16894e-015 2.75317e-014
lhumerus -36.5418 -7.48871 82.4382
lradius 48.6082
lwrist -2.8435
lhand -13.9676 27.1013
lfingers 7.12502
lthumb 12.1603 56.7279
rfemur -60.4129 0.98935 19.3859
rtibia 54.1056
rfoot -12.056 -6.28652
rtoes -12.8208
lfemur -15.2008 -5.58658 -22.5691
ltibia 36.4167
lfoot 14.4936 -9.66119
ltoes -5.81803
577
root 25.5855 20.618 17.8621 197.429 1.70443 177.848
lowerback -4.3618 -0.71604 7.63398
upperback 2.29827 -1.34565 -1.85983
thorax 4.64189 -0.388408 -6.36128
lowerneck 11.6755 20.8092 23.8915
upperneck -11.4251 33.8906 -40.7512
head 6.89755 18.9015 -12.9287
rclavicle -4.96962e-017 -1.21259e-014
rhumerus -30.1038 2.69852 -88.5754
rradius 29.4557
rwrist 0.174825
rhand -16.1679 30.5966
rfingers 7.12502
rthumb 10.0382 0.856037
lclavicle -4.96962e-017 -1.21259e-014
lhumerus -36.5079 -7.29615 82.8244
lradius 47.593
lwrist -2.20072
lhand -13.1925 27.5314
lfingers 7.12502
lthumb 12.9077 57.1122
rfemur -59.801 1.19088 19.7319
rtibia 54.127
rfoot -12.4376 -6.51135
rtoes -12.3672
lfemur -15.7026 -5.40809 -22.1088
ltibia 37.724
lfoot 15.2984 -9.53747
ltoes -4.8271
578
root 25.6261 20.6513 17.74 197.203 1.4891 178.146
lowerback -4.21134 -0.712745 7.84903
upperback 2.39936 -1.35454 -1.60271
thorax 4.66368 -0.384983 -6.20868
lowerneck 11.99 20.7258 24.0855
upperneck -11.6549 33.8819 -41.0666
head 6.90324 18.9726 -13.1039
rclavicle 3.47873e-016 1.23246e-014
rhumerus -30.1558 2.95926 -88.3595
rradius 30.0897
rwrist -0.612937
rhand -15.9265 29.3646
rfingers 7.12502
rthumb 10.2711 -0.364619
lclavicle 3.47873e-016 1.23246e-014
lhumerus -36.4536 -7.07804 83.0801
lradius 46.5952
lwrist -2.24419
lhand -12.6252 27.4693
lfingers 7.12502
lthumb 13.4544 57.0148
rfemur -58.9438 1.37777 20.1647
rtibia 54.0725
rfoot -12.8127 -6.64925
rtoes -12.1862
lfemur -16.0415 -4.92912 -21.6644
ltibia 39.1121
lfoot 15.9686 -9.58995
ltoes -4.54286
579
root 25.6628 20.6818 17.6213 196.933 1.31632 178.237
lowerback -3.9229 -0.720144 7.92656
upperback 2.4561 -1.34942 -1.45851
thorax 4.5617 -0.383692 -6.09245
lowerneck 12.2139 20.6896 24.2293
upperneck -11.8023 33.9159 -41.2665
head 6.91886 19.039 -13.2056
rclavicle -1.89839e-014 4.77083e-015
rhumerus -30.2575 2.85787 -88.1252
rradius 30.6839
rwrist -1.34228
rhand -15.882 28.7172
rfingers 7.12502
rthumb 10.314 -1.00988
lclavicle -1.89839e-014 4.77083e-015
lhumerus -36.4435 -6.88104 83.2445
lradius 45.524
lwrist -2.48706
lhand -12.1329 27.3361
lfingers 7.12502
lthumb 13.9289 56.8496
rfemur -58.0527 1.49256 20.3631
rtibia 54.0088
rfoot -13.2446 -6.88086
rtoes -11.8777
lfemur -16.3512 -4.28686 -21.4957
ltibia 40.5782
lfoot 16.5196 -9.72311
ltoes -4.90167
580
root 25.6944 20.7027 17.5155 196.804 1.16373 178.145
lowerback -3.7188 -0.725225 7.86981
upperback 2.53152 -1.33669 -1.3993
thorax 4.52877 -0.377556 -5.99228
lowerneck 12.5715 20.593 24.3957
upperneck -12.1642 33.8107 -41.5446
head 6.83361 19.0721 -13.4125
rclavicle 6.36111e-015 2.38542e-015
rhumerus -30.164 2.76967 -87.8822
rradius 31.2284
rwrist -1.79918
rhand -15.8309 28.8856
rfingers 7.12502
rthumb 10.3633 -0.839061
lclavicle 6.36111e-015 2.38542e-015
lhumerus -36.1864 -6.77241 83.3994
lradius 44.369
lwrist -2.16469
lhand -11.7677 27.1646
lfingers 7.12502
lthumb 14.2808 56.6535
rfemur -57.4094 1.58171 20.3094
rtibia 53.9571
rfoot -13.6768 -7.1358
rtoes -11.5535
lfemur -16.9357 -3.71347 -21.5306
ltibia 42.1074
lfoot 16.9772 -9.35809
ltoes -6.10139
581
root 25.7305 20.7269 17.4133 196.69 1.07721 178.08
lowerback -3.63913 -0.698479 7.7422
upperback 2.64264 -1.28908 -1.32706
thorax 4.61105 -0.350087 -5.83955
lowerneck 13.2489 20.3999 24.5432
upperneck -12.7554 33.5837 -41.9493
head 6.62395 19.1076 -13.7681
rclavicle -6.95746e-015 1.72943e-014
rhumerus -30.0216 2.95432 -87.7464
rradius 31.7484
rwrist -2.2262
rhand -16.3271 28.706
rfingers 7.12502
rthumb 9.88463 -1.04191
lclavicle -6.95746e-015 1.72943e-014
lhumerus -36.0093 -6.66971 83.5588
lradius 43.52
lwrist -1.4171
lhand -10.6591 27.5766
lfingers 7.12502
lthumb 15.3489 56.987
rfemur -56.793 1.74078 20.2956
rtibia 53.8934
rfoot -14.0883 -7.30945
rtoes -11.711
lfemur -17.6798 -3.19467 -21.5403
ltibia 43.7331
lfoot 17.1909 -8.6958
ltoes -8.34355
